Coordinates
version=1
nRows=9
nColumns=36
inDegrees=yes

Units are S.I. units (second, meters, Newtons, ...)
If the header above contains a line with 'inDegrees', this indicates whether rotational values are in degrees (yes) or radians (no).

endheader
time	pelvis_tilt	pelvis_list	pelvis_rotation	pelvis_tx	pelvis_ty	pelvis_tz	hip_flexion_r	hip_adduction_r	hip_rotation_r	knee_angle_r	knee_angle_r_beta	ankle_angle_r	subtalar_angle_r	mtp_angle_r	hip_flexion_l	hip_adduction_l	hip_rotation_l	knee_angle_l	knee_angle_l_beta	ankle_angle_l	subtalar_angle_l	mtp_angle_l	lumbar_extension	lumbar_bending	lumbar_rotation	arm_flex_r	arm_add_r	arm_rot_r	elbow_flex_r	pro_sup_r	arm_flex_l	arm_add_l	arm_rot_l	elbow_flex_l	pro_sup_l
      0.34000000	     -1.62059238	     -1.86079205	      5.79037498	      0.11914816	      1.04324541	     -0.19356926	      7.22377366	      7.07718002	     -7.45753576	      1.39251533	      0.02430398	     -1.44852885	      5.28703168	     -6.57670110	     21.88125462	     -2.45916728	      2.92470549	     64.41293592	      1.12421781	      0.08142721	     -7.49414573	     -6.57670110	     -8.92763633	      1.30078693	     -3.07889495	     -8.32024235	     -4.97830484	    -10.81223203	     43.28110134	    109.13137093	     -8.91108792	     -4.92614829	    -16.29555406	     58.52810072	     97.69404180
      0.35000000	     -1.51033721	     -1.65664787	      5.34936665	      0.13171201	      1.04455712	     -0.19271060	      6.23469290	      7.08331411	     -6.45718762	      1.32769683	      0.02317268	     -1.16191831	      4.57867803	     -6.60973442	     22.83180127	     -2.04288386	      2.90955253	     63.21343302	      1.10328254	      0.90993403	     -8.02945442	     -6.60973442	     -9.16227454	      1.00577765	     -2.05571970	     -7.62857610	     -5.21603482	    -11.17446659	     44.69625374	    109.08350150	     -9.06357511	     -4.57008451	    -15.97718820	     56.12785618	     97.54973092
      0.36000000	     -1.43611844	     -1.43333121	      5.01010932	      0.14427917	      1.04554904	     -0.19209994	      5.30887420	      7.00906806	     -5.89621102	      1.32388447	      0.02310614	     -0.51312979	      4.51137033	     -6.62354090	     23.73430083	     -1.53718801	      3.02943192	     61.75438780	      1.07781739	      1.86551348	     -8.74114293	     -6.62354090	     -9.34397640	      0.68348000	     -1.55558759	     -6.60457582	     -5.46698516	    -11.18241091	     45.75313059	    109.02762646	     -9.56612880	     -4.10861652	    -16.19680647	     54.13499232	     97.30461172
      0.37000000	     -1.28268196	     -1.22592969	      4.60201723	      0.15693375	      1.04644906	     -0.19147065	      4.29780655	      6.94815587	     -5.44959213	      1.31469393	      0.02294574	      0.09655569	      4.57044892	     -6.64419275	     24.41913050	     -1.12436458	      3.03143844	     59.94886570	      1.04630509	      2.49782798	     -9.64589497	     -6.64419275	     -9.60676399	      0.39897978	     -0.87131989	     -5.70189288	     -5.78478257	    -11.20819297	     46.97421540	    108.95819634	     -9.93254743	     -3.69733413	    -16.26702002	     51.91251118	     97.06259589
      0.38000000	     -1.30014678	     -1.05006172	      4.24289530	      0.16949432	      1.04683161	     -0.19088108	      3.49296167	      6.88650071	     -5.05230513	      1.31875905	      0.02301669	      0.66702621	      4.66627976	     -6.65288792	     25.22534536	     -0.73333816	      3.09509007	     57.92686656	      1.01101455	      3.33983492	    -10.34396580	     -6.65288792	     -9.68172442	      0.13697009	     -0.56900463	     -4.59706388	     -6.04026326	    -11.17568317	     48.09579996	    108.88318958	    -10.66963016	     -3.33069795	    -16.39604227	     50.15413033	     96.84202342
      0.39000000	     -1.14577444	     -0.87516433	      3.82023935	      0.18220099	      1.04730047	     -0.19030537	      2.48606433	      6.82618612	     -4.70099813	      1.31845172	      0.02301132	      1.41437403	      4.81580028	     -6.66329453	     25.67069696	     -0.40322452	      3.10773710	     55.52968971	      0.96917592	      3.82632701	    -11.22096589	     -6.66329453	     -9.93734668	     -0.13545940	      0.01982089	     -3.66036715	     -6.44018304	    -11.02619475	     49.22929022	    108.80257831	    -11.09556746	     -2.89863510	    -16.59531774	     48.01362226	     96.60035437
      0.40000000	     -0.89095341	     -0.71298540	      3.38847937	      0.19494339	      1.04772632	     -0.18977631	      1.36913971	      6.76368596	     -4.45355279	      1.32421350	      0.02311189	      2.22827151	      5.13225185	     -6.67746478	     25.87224350	     -0.12957233	      3.03003460	     52.77209092	      0.92104674	      3.73888711	    -12.39233415	     -6.67746478	    -10.29219822	     -0.34915046	      0.78833699	     -2.80875130	     -6.87526989	    -10.87889617	     50.41999095	    108.69561069	    -11.37686171	     -2.51069706	    -16.66551883	     45.76088835	     96.42627464
      0.41000000	     -0.66319472	     -0.61630337	      2.96546170	      0.20773469	      1.04792129	     -0.18931543	      0.32070328	      6.73325170	     -4.41237966	      1.37006967	      0.02391223	      3.00655886	      5.76511887	     -6.70552323	     25.99431272	      0.07169161	      2.97142772	     49.73828865	      0.86809690	      2.85513312	    -14.16384490	     -6.70552323	    -10.62166247	     -0.49053906	      1.59637116	     -2.04851947	     -7.28321057	    -11.00786336	     51.72677715	    108.47815117	    -11.71726591	     -2.23671803	    -16.33816582	     43.59674608	     96.52292283
      0.42000000	     -0.55703096	     -0.53806033	      2.49052738	      0.22051982	      1.04767902	     -0.18866739	     -0.61592615	      6.72373653	     -3.98371354	      1.40421738	      0.02450822	      3.85505042	      5.89874875	     -6.71987383	     26.16266190	      0.14779430	      2.75028944	     46.55815048	      0.81259302	      2.52469259	    -14.89177635	     -6.71987383	    -10.80800506	     -0.67439196	      2.21871147	     -1.13954775	     -7.70657629	    -10.84693782	     52.82580614	    108.35695149	    -12.27983618	     -1.87457187	    -16.51872117	     41.80189929	     96.47145401
